<svg xmlns="http://www.w3.org/2000/svg" viewBox="0 0 28 27">
    <g fill="none" fill-rule="evenodd">
        <path d="M0 0H36V36H0z" transform="translate(-4 -4)"/>
        <path fill="#161514" d="M17.857 4C10.205 4 4 10.204 4 17.857c0 6.123 3.97 11.317 9.476 13.15.693.128.947-.301.947-.667 0-.33-.013-1.422-.019-2.58-3.855.838-4.668-1.635-4.668-1.635-.63-1.602-1.539-2.028-1.539-2.028-1.257-.86.095-.842.095-.842 1.392.098 2.124 1.428 2.124 1.428 1.236 2.118 3.242 1.506 4.033 1.152.124-.896.483-1.507.88-1.853-3.078-.35-6.314-1.539-6.314-6.848 0-1.513.541-2.75 1.428-3.72-.144-.349-.618-1.758.134-3.667 0 0 1.164-.373 3.812 1.42 1.105-.307 2.29-.46 3.468-.466 1.178.005 2.364.16 3.472.466 2.645-1.793 3.807-1.42 3.807-1.42.754 1.909.28 3.318.135 3.667.889.97 1.427 2.207 1.427 3.72 0 5.322-3.242 6.494-6.328 6.837.497.43.94 1.273.94 2.566 0 1.854-.016 3.346-.016 3.803 0 .369.25.8.952.665 5.503-1.835 9.468-7.027 9.468-13.148C31.714 10.204 25.51 4 17.857 4" transform="translate(-4 -4)"/>
    </g>
</svg>
